<svg xmlns="http://www.w3.org/2000/svg" width="20" height="16.001" viewBox="0 0 20 16.001">
  <path id="comments-solid" d="M6.49,11c3.591,0,6.5-2.463,6.5-5.5S10.08,0,6.49,0s-6.5,2.463-6.5,5.5A4.948,4.948,0,0,0,1.227,8.732,2.9,2.9,0,0,1,.783,9.5a3.584,3.584,0,0,1-.416.447c-.056.05-.1.091-.134.116a.276.276,0,0,1-.034.025L.193,10.1h0a.5.5,0,0,0-.178.556A.507.507,0,0,0,.489,11,5.647,5.647,0,0,0,2.43,10.61a6.947,6.947,0,0,0,.791-.356A7.364,7.364,0,0,0,6.49,11Zm7.5-5.5c0,3.509-3.1,6.153-6.766,6.469A6.428,6.428,0,0,0,13.49,16a7.388,7.388,0,0,0,3.272-.747,6.89,6.89,0,0,0,.788.356A5.647,5.647,0,0,0,19.49,16a.5.5,0,0,0,.294-.906h0l-.006-.006c-.006-.006-.019-.013-.034-.025-.031-.025-.078-.063-.134-.116a3.584,3.584,0,0,1-.416-.447,2.951,2.951,0,0,1-.444-.772A4.936,4.936,0,0,0,19.987,10.5c0-2.9-2.653-5.278-6.019-5.485.012.159.019.322.019.484Z" transform="translate(0.011)" fill="#fff"/>
</svg>
