<svg xmlns="http://www.w3.org/2000/svg" xmlns:xlink="http://www.w3.org/1999/xlink" width="22.37" height="19.01" viewBox="0 0 22.37 19.01">
  <defs>
    <clipPath id="clip-path">
      <rect id="矩形_364" data-name="矩形 364" width="22.37" height="19.01" fill="#211e55"/>
    </clipPath>
  </defs>
  <g id="组_448" data-name="组 448" clip-path="url(#clip-path)">
    <path id="路径_2195" data-name="路径 2195" d="M10.1.02c2.164,0,4.327,0,6.491,0a6,6,0,0,1,1.4.094,2.882,2.882,0,0,1,2.167,2.832q-.005,2.5-.019,5c0,.348-.064.427-.4.5a2.7,2.7,0,0,0-1.381.75Q15.31,12.26,12.263,15.32a1.634,1.634,0,0,0-.5,1.062c-.023.309-.133.388-.5.388q-3.834,0-7.669,0a6.168,6.168,0,0,1-1.322-.061A2.918,2.918,0,0,1,.02,13.485a2.837,2.837,0,0,0,.012-.313q0-4.776,0-9.552A6.419,6.419,0,0,1,.1,2.246,2.9,2.9,0,0,1,2.978,0Q6.537,0,10.1,0c0,.007,0,.013,0,.02M10.08,9.534a2.013,2.013,0,0,0,1.18-.4q.813-.594,1.629-1.184,1.872-1.362,3.745-2.722a.845.845,0,0,0,.4-.92.836.836,0,0,0-1.365-.448q-2.616,1.9-5.228,3.8c-.365.265-.366.262-.724,0Q7.095,5.751,4.47,3.846a.837.837,0,1,0-.987,1.348Q6.2,7.175,8.919,9.149a2,2,0,0,0,1.162.384m7.57,2.747c-1.159,1.17-2.294,2.366-3.493,3.494a1.939,1.939,0,0,0-.734,1.784,11.562,11.562,0,0,1,.011,1.449c.772,0,1.511.008,2.249-.007a.61.61,0,0,0,.38-.159q2.068-2.036,4.12-4.089c.06-.06.115-.124.162-.174l-2.527-2.531a1.782,1.782,0,0,1-.168.234m3.525,1.474c.317-.314.659-.623.965-.964a.944.944,0,0,0-.027-1.267q-.581-.619-1.2-1.2a.928.928,0,0,0-1.245-.043c-.353.307-.666.659-.986.981l2.495,2.494" transform="translate(0 0)" fill="#211e55"/>
  </g>
</svg>
