<svg xmlns="http://www.w3.org/2000/svg" width="20" height="18" viewBox="0 0 20 18">
  <path id="house-solid" d="M19.995,8.982a1.129,1.129,0,0,1-1.111,1.129H17.772l.024,5.632a2.611,2.611,0,0,1-.017.285v.566A1.4,1.4,0,0,1,16.39,18h-.556c-.038,0-.076,0-.115,0s-.1,0-.146,0H13.612a1.4,1.4,0,0,1-1.389-1.406V13.5a1.117,1.117,0,0,0-1.111-1.125H8.89A1.117,1.117,0,0,0,7.778,13.5v3.094A1.4,1.4,0,0,1,6.389,18H4.448c-.052,0-.1,0-.156-.007S4.209,18,4.167,18H3.611a1.4,1.4,0,0,1-1.389-1.406V12.656a.932.932,0,0,1,0-.1V10.111H1.111A1.1,1.1,0,0,1,0,8.982a1.15,1.15,0,0,1,.347-.844L9.251.281A1,1,0,0,1,10.015,0a1.144,1.144,0,0,1,.729.246l8.869,7.893A.968.968,0,0,1,19.995,8.982Z" fill="#fff"/>
</svg>
