<svg xmlns="http://www.w3.org/2000/svg" width="20" height="22" viewBox="0 0 20 22">
  <path id="路径_2023" data-name="路径 2023" d="M0,10.974Q0,7.005,0,3.036C0,1.17,1.407.014,3.677.011,6.284.007,8.891.029,11.5,0a4.461,4.461,0,0,1,3.055,1.013q2.087,1.748,4.208,3.468A3.051,3.051,0,0,1,20,7c-.015,3.969,0,7.938-.009,11.908A2.793,2.793,0,0,1,17.85,21.8a4.934,4.934,0,0,1-1.37.192Q10,22.012,3.514,22c-2.1,0-3.505-1.166-3.51-2.92-.007-2.7,0-5.4,0-8.1M2.409,11q0,4,0,7.992c0,.789.246,1,1.168,1q6.416,0,12.831,0c.936,0,1.126-.163,1.127-.948,0-3.877-.007-7.754.012-11.63,0-.437-.16-.576-.68-.568-1.18.019-2.362.025-3.54-.016-1.063-.037-1.576-.5-1.6-1.367-.021-.937-.038-1.875,0-2.811.02-.489-.183-.628-.765-.622-2.405.024-4.811.009-7.217.01-1.151,0-1.342.16-1.342,1.134q0,3.914,0,7.827M9.122,12.5c0-.5.038-.993-.01-1.485-.051-.523-.39-.7-1-.6-2.746.457-4.5,2.8-3.754,5.016.63,1.868,2.366,2.977,4.8,3.068a4.962,4.962,0,0,0,4.691-2.732c.429-.926.166-1.261-1.03-1.279-.934-.014-1.869,0-2.8-.007-.571,0-.865-.243-.872-.713-.006-.422,0-.844,0-1.266H9.122m1.779-.122c.006.389.231.64.721.646,1.133.013,2.267.02,3.4,0,.565-.01.773-.3.681-.75a4.642,4.642,0,0,0-3.872-3.2c-.586-.078-.9.113-.927.6-.025.44-.005.881,0,1.322,0,.459,0,.918,0,1.377" transform="translate(0 -0.001)" fill="#fff"/>
</svg>
