<svg xmlns="http://www.w3.org/2000/svg" width="20" height="22" viewBox="0 0 20 22">
  <path id="路径_973" data-name="路径 973" d="M9.923,22c-2.237,0-4.474.006-6.71,0C1.1,21.988,0,20.769,0,18.452q0-7.5,0-15C0,1.4,1.007.2,2.867.022,3.038.005,3.211,0,3.383,0q6.624,0,13.248.007A4.49,4.49,0,0,1,17.99.189a2.99,2.99,0,0,1,2,2.977q.026,7.847,0,15.694a2.909,2.909,0,0,1-2.837,3.119c-2.408.034-4.817.009-7.226.009V22M10,19.732q3.47,0,6.94,0c.732,0,.976-.261.976-1.046q.005-7.658,0-15.317c0-.806-.228-1.062-.96-1.063q-6.94-.007-13.88,0c-.78,0-1.015.271-1.015,1.143q0,7.564,0,15.128c0,.91.223,1.155,1.056,1.156q3.441.006,6.882,0M5.495,9.9c-.756,0-1.135.353-1.152,1.059A1.02,1.02,0,0,0,5.465,12.14q4.529.017,9.059,0a1.019,1.019,0,0,0,1.124-1.174c-.02-.708-.4-1.062-1.152-1.063q-2.236,0-4.472,0-2.265,0-4.53,0M7.838,7.386c.875,0,1.753.043,2.624-.026A1.126,1.126,0,0,0,10.2,5.131c-.914-.034-1.83-.009-2.745-.009-.686,0-1.375-.028-2.058.016A1.028,1.028,0,0,0,4.337,6.274a.96.96,0,0,0,.988,1.111C6.159,7.445,7,7.4,7.837,7.4c0,0,0-.009,0-.014M6.369,16.863c.363,0,.728.018,1.09,0A1.024,1.024,0,0,0,8.5,15.828a1.034,1.034,0,0,0-.877-1.192,13.741,13.741,0,0,0-2.456.018,1.01,1.01,0,0,0-.846,1.15A1.016,1.016,0,0,0,5.28,16.85c.361.032.726.006,1.089.006v.007" transform="translate(0 0)" fill="#fff"/>
</svg>
